PathFileType	4	(X/Y/Z)	Patient4_TMGait_0pt3_02_left_16.trc.trc
DataRate	CameraRate	NumFrames	NumMarkers	Units	OrigDataRate	OrigDataStartFrame	OrigNumFrames
50.359712230216	50.359712230216	7	33	mm	50.359712230216	124	       141
Frame#	Time	Sacral			L.Shoulder			Chest			R.Shoulder			Neck			R.ASIS			L.ASIS			R.Thigh.Superior			R.Thigh.Lateral			R.Thigh.Inferior			R.Patella			L.Thigh.Superior			L.Thigh.Lateral			L.Thigh.Inferior			L.Patella			L.Shank.Superior			L.Shank.Lateral			L.Shank.Inferior			R.Shank.Superior			R.Shank.Lateral			R.Shank.Inferior			R.Heel			R.Midfoot.Superior			R.Midfoot.Lateral			R.Toe			L.Heel			L.Midfoot.Lateral			L.Midfoot.Superior			L.Toe			L.Elbow			L.Wrist			R.Elbow			R.Wrist			
		X1	Y1	Z1	X2	Y2	Z2	X3	Y3	Z3	X4	Y4	Z4	X5	Y5	Z5	X6	Y6	Z6	X7	Y7	Z7	X8	Y8	Z8	X9	Y9	Z9	X10	Y10	Z10	X11	Y11	Z11	X12	Y12	Z12	X13	Y13	Z13	X14	Y14	Z14	X15	Y15	Z15	X16	Y16	Z16	X17	Y17	Z17	X18	Y18	Z18	X19	Y19	Z19	X20	Y20	Z20	X21	Y21	Z21	X22	Y22	Z22	X23	Y23	Z23	X24	Y24	Z24	X25	Y25	Z25	X26	Y26	Z26	X27	Y27	Z27	X28	Y28	Z28	X29	Y29	Z29	X30	Y30	Z30	X31	Y31	Z31	X32	Y32	Z32	X33	Y33	Z33	

124	33.332428571429	691.882365094570	1001.031808667447	593.554053731657	824.253999527372	1423.246268619511	370.297731941483	963.675096361195	1356.137591387634	502.222906091734	927.381897942573	1436.834974643536	687.367195293969	849.925054106117	1487.801229332386	523.135997282045	936.629294490258	933.446177271760	664.354752956737	873.563468439658	955.746238388868	396.888526221321	943.921943557513	723.989811476752	624.015242554262	855.501112056670	617.995145373553	688.650056777578	911.379881047675	563.534684046511	597.088198334696	898.001632342142	474.402943912689	598.965359713662	952.138031425762	763.269560393449	418.516957241443	887.028822734098	637.558013748607	348.494494958540	990.276407402842	575.924748067231	404.068427376171	1012.452509681660	514.027212169667	401.873560480254	998.790937387048	443.084259642029	388.205227042918	937.225183538721	313.497860854389	331.993001176344	1027.774174884570	215.304555175857	383.246894207447	856.404420304770	389.357625481621	603.982618900427	775.418698342823	292.457954657456	666.666732274163	795.564292086854	198.234728980136	593.419589253649	639.876853585329	43.652992220304	560.162844217660	812.199573079579	94.388790172310	593.218002665097	723.675678367835	36.747348295716	633.982507461465	932.058871304053	41.138697899537	621.543241345832	946.534153232781	37.322655922624	414.774071490920	1021.340463936456	43.582536776009	335.611180894361	1092.602414933615	119.176003958931	359.827895063083	1225.916412251152	89.031775731984	334.028989204822	657.947137873632	1109.293547031173	299.779734759951	620.010014401302	852.615699323360	326.071425482376	1148.273215035026	1194.685538226458	795.522868878775	1366.852531100813	1306.980275015804	729.857602705548	
125	33.352285714286	692.757493342026	1000.764720349174	591.573181113535	824.859315265844	1422.515060336422	367.561964828650	964.690480988595	1355.217668282316	499.004438715968	929.057765389741	1436.125916942215	684.141086803083	851.054814798847	1487.123537184689	520.420237155179	937.559694339720	932.463966558129	661.989011948435	873.802035478095	954.789894228633	394.717323849143	943.477613104947	722.754892335693	622.049320498040	854.064644714782	617.459563797018	686.911054888041	909.447944941095	562.338444487136	595.612347026731	895.100567285987	473.249768760555	597.665043666480	950.700029197100	760.445705049996	415.461116996764	882.577326308459	635.269438317065	347.157360323445	985.717786762426	573.044709731930	402.116151646444	1006.706207904659	511.363388771061	400.555227462480	993.534995994617	440.607768286773	387.037827762122	931.869282194993	310.784096236319	331.731735769439	1022.686290984474	212.910609010340	383.148838010634	853.021461299275	388.608906971668	602.900468324749	771.286483628836	292.498756262681	665.955133060669	790.620074707525	197.894298761854	592.956747359404	633.983645872964	43.786983482628	560.180892620836	806.180507870875	94.131788082247	592.826539867294	717.795253457706	36.754522888688	633.948319881775	926.158309269828	40.948931108025	621.561000928501	940.729668636452	36.580015142826	415.465915334897	1015.362465561182	41.810854932385	336.029755175652	1087.899003369267	115.953734527493	360.357551033697	1220.664396237014	83.550195972467	334.110508980256	658.026895769498	1108.989364715514	298.147559779742	621.673611774060	851.753280509295	325.469793518303	1151.846466322043	1196.364089104338	791.370814986712	1368.433717351829	1312.363983133069	725.202894117920	
126	33.372142857143	693.644344299580	1000.324991933121	589.421072393886	825.667791379645	1421.612029545000	364.636105689997	965.807955884086	1354.138732393809	495.705042177518	930.749970091161	1435.279862628825	680.819734785603	852.278760863619	1486.332847745313	517.508584283233	938.552765348609	931.362850620569	659.424719505498	874.058220512009	953.832668714084	392.350396933463	943.358001863697	721.495815413998	619.775058155696	853.185816140469	616.783810140513	684.901468422285	908.107531993245	561.084541439001	593.815090849860	892.898506962130	471.935881789088	596.076509503000	949.603323708729	757.978169740964	412.317890535225	879.018537238728	633.283337481107	345.579407863391	982.062971621244	570.632663163971	400.082252745004	1001.925416819889	509.006215555244	399.031872957325	989.192947983609	438.339153376909	385.677609617719	927.192287654118	308.372432834130	331.201805513188	1018.033318338830	210.608689132152	382.825365258231	850.140676190680	387.715694862372	601.572489799841	767.562829491748	292.542258668504	665.089256932098	785.920436761981	197.510758642114	592.388446272097	628.127735579024	44.021290070279	560.213665494309	800.258846488543	93.951852935518	592.510062112282	711.958512665931	36.805122607702	633.913724342303	920.289233326771	40.724955694877	621.579667129893	934.815946464863	36.150980202702	415.918713555194	1009.367187056798	40.098182180330	336.270161301639	1083.392961297381	112.595113202218	360.731689930390	1215.521668438589	77.523187013360	334.223983239688	659.511121949745	1107.761958391132	296.060597620226	625.385696495077	849.881505715571	324.174317927895	1154.817292668191	1197.227112699744	787.427818735747	1370.106135619070	1315.787213466329	720.736217366725	
127	33.392000000000	694.561154752160	999.840703022975	587.107307222618	826.620927955867	1420.669880641102	361.549699934526	967.010525690652	1353.029439155736	492.308305480315	932.494842929583	1434.409253897366	677.405146594443	853.579988504375	1485.537211270116	514.413482850513	939.608501603855	930.236962318755	656.615100518736	874.328452664425	953.001644484100	389.744658032397	943.436691903103	720.269953475808	617.200431204145	852.685678189630	616.072097206214	682.658777837440	907.146290635245	559.841344269994	591.737213192840	891.170729396769	470.564147501855	594.253230384078	948.928614558329	756.074947610199	409.128848943398	876.541847087903	631.733265421859	343.749668919027	979.514476031659	568.839038813140	397.946765838122	998.324870557770	507.073872193656	397.313193094326	985.946714234966	436.391761771259	384.155340434537	923.380663409060	306.409632656898	330.383564381883	1013.919641757387	208.523856804988	382.315936297373	847.580062989109	386.778181377706	600.056800736305	764.110636679813	292.654783846435	664.111642884748	781.389046567765	197.158046997310	591.755229555738	622.302264413089	44.405161771715	560.277553619616	794.455329601822	93.891001047220	592.333114216389	706.158268652625	36.920890759910	633.892396643304	914.442817367090	40.467582994540	621.599270208810	928.938650224817	36.025322248579	416.148216533544	1003.486884512651	38.566119234714	336.348680842998	1079.090656074306	109.340716196351	360.960276210934	1210.535497981587	71.427377015456	334.366913559626	662.205095298375	1105.825529185897	293.524816122970	630.984159436769	847.262708030148	322.108011755649	1157.253868691073	1197.406633992304	783.696290006436	1371.997806155217	1317.343110348037	716.510525238443	
128	33.411857142857	695.521647557957	999.434148494348	584.604658820059	827.685251981422	1419.816294768813	358.322219415431	968.289817101550	1352.010450365636	488.802625442054	934.311164816026	1433.615345296810	673.898398140644	854.947836544057	1484.836173936330	511.150809080397	940.713055548287	929.178808583457	653.536392925940	874.642822989802	952.394978823336	386.870069758071	943.577576967167	719.132678476612	614.372121641975	852.354607162272	615.434928948840	680.237615378698	906.342565791803	558.679356173862	589.453297037654	889.677847784565	469.241199240073	592.276693078419	948.750501596127	754.876318025672	405.944023621148	875.262007081198	630.694338010888	341.684169797121	978.195536151882	567.735103438735	395.709271097587	996.039052142451	505.619550333334	395.438930869727	983.881950834798	434.821680113063	382.529564974793	920.517174805717	304.987795329838	329.297588283821	1010.346233854249	206.728959179237	381.691379021092	845.152500241978	385.900762266929	598.431372226285	760.777422331700	292.905756349510	663.072690024545	776.943985609888	196.912995195636	591.107827351044	616.495089044063	44.992473882365	560.388291520631	788.777561994670	93.978922825027	592.342297408441	700.380295518112	37.127049760498	633.898346453844	908.603660149601	40.179269660460	621.620570440717	923.150881235626	36.151977173804	416.194521689411	997.749024457191	37.304173339068	336.295933576746	1074.901970965734	106.388155445476	361.074400642855	1205.658022965343	65.689705446851	334.519132597483	665.881729491936	1103.438219314177	290.539880740775	638.311095570538	844.202425168219	319.210386742075	1159.223313193739	1197.037730699701	780.139529948815	1374.218553361983	1317.102201013648	712.578473723937	
129	33.431714285714	696.533147841205	999.204102986504	581.851951566728	828.857979541586	1419.156921493855	354.959228151752	969.647164534260	1351.178537313155	485.183823637074	936.194510808979	1432.975695210929	670.300203980520	856.377660161992	1484.307868395864	507.736181373608	941.839352557786	928.267686274456	650.191165470706	875.060618862192	952.068995374857	383.713279360580	943.657090453938	718.131438865014	611.366319260823	851.987806605746	614.973092518035	677.700197871285	905.503032892061	557.661518651774	587.058559701534	888.205014640239	468.061202277858	590.242019152967	949.122636102945	754.432762379462	402.818900222346	875.206238423447	630.175438242526	339.423122857256	978.131577493976	567.305478446662	393.398110112166	995.107298018295	504.630548314946	393.477862591354	982.983413026252	433.627443376096	380.878321773150	918.587536509533	304.134054211430	328.002783640037	1007.236033084105	205.244620374423	381.041539608377	842.696219492119	385.176565010869	596.780977341250	757.420317779045	293.358293799949	662.022058947018	772.510178425761	196.844711978609	590.499092799340	610.689702129908	45.837010531766	560.558701344066	783.218491549866	94.229658361406	592.559988846590	694.603904363467	37.450319298140	633.943512901265	902.750166912907	39.863772517204	621.644783084015	917.438641453374	36.457800872787	416.111103796117	992.112777036182	36.362114508313	336.154548838518	1070.690917687124	103.871430197988	361.124503034488	1200.792438230585	60.629635545127	334.664247320852	670.302887410271	1100.871320913696	287.091946986997	647.214494679296	841.020492769376	315.441478433520	1160.786089672975	1196.245470598856	776.687322002813	1376.849460086775	1315.102818222125	708.990584249398	
130	33.451571428571	697.594353450615	999.213276164657	578.764250250818	830.166816812995	1418.762727940028	351.451999655575	971.092816432252	1350.595283756137	481.457000865318	938.115562041606	1432.536101577525	666.611897978669	857.869535897382	1483.999971001887	504.181792371801	942.950319437572	927.560453346952	646.606258478137	875.659614958419	952.032766573937	380.278519214130	943.582906277397	717.300848933315	608.274674597072	851.417896729131	614.763445411607	675.106319466628	904.492339479123	556.834402523344	584.653356735861	886.593578566261	467.092496728997	588.242921721929	950.064979980350	754.699026016330	399.809713935317	876.315947360699	630.123855052072	337.020962621876	979.248024352687	567.458155025088	391.070035499058	995.471931615233	504.037900172495	391.516118240818	983.144366167359	432.758396847209	379.282481821670	917.495542529654	303.812019179460	326.584579247405	1004.464206227728	204.047369748142	380.455323858695	840.098079009706	384.674434112208	595.184088228896	753.927198387419	294.060916341798	661.000866474306	768.029823941148	197.005521486955	589.976030177341	604.867582493309	46.986484596397	560.796591163604	777.757243050068	94.639829273498	592.980786908149	688.804230691093	37.916155747623	634.035801849790	896.856308964922	39.525857869663	621.673244958544	911.748972322872	36.866560769747	415.954412703162	986.503443574826	35.748802490832	335.972660343722	1066.320172445501	101.852478441189	361.168469553095	1195.832415502731	56.424650659945	334.796451224919	675.243949778139	1098.376887781410	283.150054849327	657.547042245858	838.020023583102	310.785307108976	1161.989726793141	1195.133646893010	773.247756050438	1379.930309457481	1311.348382941222	705.794402733628	
